<mxfile host="app.diagrams.net" modified="2023-08-13T03:12:19.587Z" agent="Mozilla/5.0 (Windows NT 10.0; Win64; x64) AppleWebKit/537.36 (KHTML, like Gecko) Chrome/114.0.0.0 Safari/537.36 OPR/100.0.0.0" etag="_YdSuOsKtfutzCULq9ji" version="21.6.7" type="github">
  <diagram name="PÃ¡gina-1" id="2KxzbIbot8jQzCP98CJ4">
    <mxGraphModel dx="1398" dy="808" grid="1" gridSize="10" guides="1" tooltips="1" connect="1" arrows="1" fold="1" page="1" pageScale="1" pageWidth="827" pageHeight="1169" math="0" shadow="0">
      <root>
        <mxCell id="0" />
        <mxCell id="1" parent="0" />
        <mxCell id="G654GCo90zqFl6QFMycI-12" value="" style="edgeStyle=orthogonalEdgeStyle;rounded=0;orthogonalLoop=1;jettySize=auto;html=1;strokeColor=#d79b00;fontColor=#FEFAE0;fillColor=#ffe6cc;strokeWidth=1;" edge="1" parent="1" source="G654GCo90zqFl6QFMycI-1" target="G654GCo90zqFl6QFMycI-3">
          <mxGeometry relative="1" as="geometry">
            <Array as="points">
              <mxPoint x="400" y="100" />
              <mxPoint x="400" y="100" />
            </Array>
          </mxGeometry>
        </mxCell>
        <mxCell id="G654GCo90zqFl6QFMycI-1" value="" style="ellipse;whiteSpace=wrap;html=1;aspect=fixed;labelBackgroundColor=none;" vertex="1" parent="1">
          <mxGeometry x="377.5" y="10" width="40" height="40" as="geometry" />
        </mxCell>
        <mxCell id="G654GCo90zqFl6QFMycI-19" style="edgeStyle=orthogonalEdgeStyle;rounded=0;orthogonalLoop=1;jettySize=auto;html=1;entryX=0.5;entryY=0;entryDx=0;entryDy=0;strokeColor=#DDA15E;fontColor=#FEFAE0;fillColor=#BC6C25;" edge="1" parent="1" source="G654GCo90zqFl6QFMycI-3" target="G654GCo90zqFl6QFMycI-5">
          <mxGeometry relative="1" as="geometry" />
        </mxCell>
        <mxCell id="G654GCo90zqFl6QFMycI-20" style="edgeStyle=orthogonalEdgeStyle;rounded=0;orthogonalLoop=1;jettySize=auto;html=1;entryX=0.5;entryY=0;entryDx=0;entryDy=0;strokeColor=#DDA15E;fontColor=#FEFAE0;fillColor=#BC6C25;" edge="1" parent="1" source="G654GCo90zqFl6QFMycI-3" target="G654GCo90zqFl6QFMycI-6">
          <mxGeometry relative="1" as="geometry" />
        </mxCell>
        <mxCell id="G654GCo90zqFl6QFMycI-3" value="Cuentas de Cheques" style="rounded=1;whiteSpace=wrap;html=1;strokeColor=#6c8ebf;fillColor=#dae8fc;" vertex="1" parent="1">
          <mxGeometry x="330" y="120" width="140" height="50" as="geometry" />
        </mxCell>
        <mxCell id="G654GCo90zqFl6QFMycI-13" style="edgeStyle=orthogonalEdgeStyle;rounded=0;orthogonalLoop=1;jettySize=auto;html=1;strokeColor=#DDA15E;fontColor=#FEFAE0;fillColor=#BC6C25;entryX=0.5;entryY=0;entryDx=0;entryDy=0;" edge="1" parent="1" source="G654GCo90zqFl6QFMycI-5" target="G654GCo90zqFl6QFMycI-10">
          <mxGeometry relative="1" as="geometry">
            <mxPoint x="140" y="300" as="targetPoint" />
          </mxGeometry>
        </mxCell>
        <mxCell id="G654GCo90zqFl6QFMycI-5" value="Retiro" style="rounded=1;whiteSpace=wrap;html=1;strokeColor=#6c8ebf;fillColor=#dae8fc;" vertex="1" parent="1">
          <mxGeometry x="80" y="210" width="120" height="60" as="geometry" />
        </mxCell>
        <mxCell id="G654GCo90zqFl6QFMycI-15" style="edgeStyle=orthogonalEdgeStyle;rounded=0;orthogonalLoop=1;jettySize=auto;html=1;entryX=0.5;entryY=0;entryDx=0;entryDy=0;strokeColor=#DDA15E;fontColor=#FEFAE0;fillColor=#BC6C25;" edge="1" parent="1" source="G654GCo90zqFl6QFMycI-6" target="G654GCo90zqFl6QFMycI-9">
          <mxGeometry relative="1" as="geometry" />
        </mxCell>
        <mxCell id="G654GCo90zqFl6QFMycI-6" value="Deposita" style="rounded=1;whiteSpace=wrap;html=1;strokeColor=#6c8ebf;fillColor=#dae8fc;" vertex="1" parent="1">
          <mxGeometry x="540" y="240" width="120" height="60" as="geometry" />
        </mxCell>
        <mxCell id="G654GCo90zqFl6QFMycI-7" value="Retiro no permitido" style="rounded=1;whiteSpace=wrap;html=1;strokeColor=#6c8ebf;fillColor=#dae8fc;" vertex="1" parent="1">
          <mxGeometry x="60" y="420" width="120" height="60" as="geometry" />
        </mxCell>
        <mxCell id="G654GCo90zqFl6QFMycI-18" style="edgeStyle=orthogonalEdgeStyle;rounded=0;orthogonalLoop=1;jettySize=auto;html=1;entryX=0;entryY=0.5;entryDx=0;entryDy=0;strokeColor=#DDA15E;fontColor=#FEFAE0;fillColor=#BC6C25;" edge="1" parent="1" source="G654GCo90zqFl6QFMycI-8" target="G654GCo90zqFl6QFMycI-9">
          <mxGeometry relative="1" as="geometry" />
        </mxCell>
        <mxCell id="G654GCo90zqFl6QFMycI-8" value="Retirar Cantidad" style="rounded=1;whiteSpace=wrap;html=1;strokeColor=#6c8ebf;fillColor=#dae8fc;" vertex="1" parent="1">
          <mxGeometry x="320" y="480" width="120" height="60" as="geometry" />
        </mxCell>
        <mxCell id="G654GCo90zqFl6QFMycI-23" style="edgeStyle=orthogonalEdgeStyle;rounded=0;orthogonalLoop=1;jettySize=auto;html=1;entryX=0.5;entryY=0;entryDx=0;entryDy=0;strokeColor=#DDA15E;fontColor=#FEFAE0;fillColor=#BC6C25;" edge="1" parent="1" source="G654GCo90zqFl6QFMycI-9" target="G654GCo90zqFl6QFMycI-21">
          <mxGeometry relative="1" as="geometry" />
        </mxCell>
        <mxCell id="G654GCo90zqFl6QFMycI-9" value="Actualizar el saldo de la cuenta" style="rounded=1;whiteSpace=wrap;html=1;strokeColor=#6c8ebf;fillColor=#dae8fc;" vertex="1" parent="1">
          <mxGeometry x="570" y="480" width="120" height="60" as="geometry" />
        </mxCell>
        <mxCell id="G654GCo90zqFl6QFMycI-16" style="edgeStyle=orthogonalEdgeStyle;rounded=0;orthogonalLoop=1;jettySize=auto;html=1;entryX=0;entryY=0.5;entryDx=0;entryDy=0;strokeColor=#DDA15E;fontColor=#FEFAE0;fillColor=#BC6C25;" edge="1" parent="1" source="G654GCo90zqFl6QFMycI-10" target="G654GCo90zqFl6QFMycI-8">
          <mxGeometry relative="1" as="geometry" />
        </mxCell>
        <mxCell id="G654GCo90zqFl6QFMycI-17" style="edgeStyle=orthogonalEdgeStyle;rounded=0;orthogonalLoop=1;jettySize=auto;html=1;entryX=0.667;entryY=0;entryDx=0;entryDy=0;entryPerimeter=0;strokeColor=#DDA15E;fontColor=#FEFAE0;fillColor=#BC6C25;" edge="1" parent="1" source="G654GCo90zqFl6QFMycI-10" target="G654GCo90zqFl6QFMycI-7">
          <mxGeometry relative="1" as="geometry" />
        </mxCell>
        <mxCell id="G654GCo90zqFl6QFMycI-10" value="" style="rhombus;whiteSpace=wrap;html=1;strokeColor=#d79b00;fillColor=#ffe6cc;" vertex="1" parent="1">
          <mxGeometry x="270" y="340" width="60" height="50" as="geometry" />
        </mxCell>
        <mxCell id="G654GCo90zqFl6QFMycI-21" value="" style="ellipse;whiteSpace=wrap;html=1;aspect=fixed;" vertex="1" parent="1">
          <mxGeometry x="605" y="650" width="50" height="50" as="geometry" />
        </mxCell>
        <mxCell id="G654GCo90zqFl6QFMycI-24" value="&lt;h1&gt;&lt;font color=&quot;#000000&quot;&gt;No&lt;/font&gt;&lt;/h1&gt;" style="text;html=1;strokeColor=none;fillColor=none;spacing=5;spacingTop=-20;whiteSpace=wrap;overflow=hidden;rounded=0;fontColor=#FEFAE0;" vertex="1" parent="1">
          <mxGeometry x="170" y="320" width="40" height="40" as="geometry" />
        </mxCell>
        <mxCell id="G654GCo90zqFl6QFMycI-28" value="&lt;h1&gt;&lt;font color=&quot;#000000&quot;&gt;Si&lt;/font&gt;&lt;/h1&gt;" style="text;html=1;strokeColor=none;fillColor=none;spacing=5;spacingTop=-20;whiteSpace=wrap;overflow=hidden;rounded=0;fontColor=#FEFAE0;" vertex="1" parent="1">
          <mxGeometry x="300" y="430" width="30" height="30" as="geometry" />
        </mxCell>
      </root>
    </mxGraphModel>
  </diagram>
</mxfile>
